<svg width="370" height="256" viewBox="0 0 370 256" fill="none" xmlns="http://www.w3.org/2000/svg">
<path fill-rule="evenodd" clip-rule="evenodd" d="M328.182 180.483C337.458 173.468 346.556 166.591 355.642 159.7C355.85 159.542 355.938 159.231 356.147 158.881C355.589 158.628 355.131 158.419 354.428 158.1C357.794 158.1 360.919 158.1 364.323 158.1C363.939 158.265 363.783 158.371 363.616 158.396C360.779 158.793 358.401 160.132 356.142 161.84C349.064 167.186 341.939 172.472 334.834 177.787C334.325 178.168 333.842 178.585 333.203 179.103C335.215 180.644 337.069 182.086 338.945 183.503C345.928 188.78 352.906 194.065 359.914 199.309C361.332 200.369 362.81 201.381 364.372 202.202C365.865 202.985 367.504 203.492 369.141 204.146C364.052 204.146 358.989 204.146 353.561 204.146C354.438 203.857 354.975 203.68 355.84 203.394C355.181 202.752 354.715 202.198 354.156 201.769C347.438 196.629 340.706 191.506 333.98 186.38C332.333 185.126 330.687 183.872 329.036 182.623C328.767 182.419 328.473 182.25 328.037 181.961C328.003 182.671 327.957 183.187 327.956 183.704C327.951 188.979 327.952 194.253 327.954 199.527C327.954 199.884 327.959 200.239 327.973 200.594C328.049 202.498 328.657 203.817 331.056 203.877C331.219 203.881 331.38 203.958 331.54 204.256C330.994 204.256 330.449 204.26 329.905 204.256C326.064 204.225 322.223 204.169 318.382 204.176C317.627 204.177 316.876 204.482 316.116 204.529C314.702 204.621 313.281 204.694 311.868 204.651C309.402 204.576 307.217 203.678 305.543 201.861C303.863 200.038 302.213 198.161 300.777 196.143C298.035 192.285 295.456 188.313 292.81 184.387C292.286 183.608 291.771 182.821 291.346 182.177C288.636 182.177 286.12 182.177 283.464 182.177C283.428 182.996 283.374 183.632 283.373 184.269C283.366 189.128 283.37 193.988 283.37 198.848C283.37 199.085 283.366 199.322 283.373 199.559C283.459 202.683 283.691 203.029 286.627 204.179C282.671 204.179 278.909 204.179 274.884 204.179C275.236 203.963 275.378 203.833 275.543 203.781C277.609 203.129 277.876 202.807 277.989 200.68C278.028 199.912 278.034 199.141 278.034 198.369C278.038 186.872 278.036 175.375 278.036 163.878C278.036 163.463 278.058 163.047 278.03 162.634C277.863 160.066 278.296 159.289 274.902 158.091C275.366 158.041 275.627 157.989 275.888 157.989C281.859 158 287.829 158.014 293.799 158.029C296.17 158.035 298.344 158.742 300.341 159.975C302.59 161.362 303.85 163.408 304.232 166.034C304.98 171.166 302.986 175.158 299.161 178.384C298.351 179.067 297.451 179.644 296.567 180.29C296.596 180.46 296.577 180.655 296.659 180.784C300.539 186.877 304.384 192.997 309.126 198.473C310.045 199.534 311.094 200.564 312.277 201.299C315.667 203.411 319.08 203.296 322.495 200.919C322.54 200.208 322.631 199.449 322.631 198.69C322.64 186.956 322.642 175.221 322.627 163.488C322.626 162.603 322.542 161.711 322.4 160.838C322.097 158.981 321.672 158.616 319.748 158.376C319.525 158.348 319.304 158.311 319.093 158.09C323.233 158.09 327.371 158.09 331.892 158.09C331.369 158.259 331.194 158.341 331.013 158.37C328.665 158.751 328.012 159.342 327.986 161.716C327.925 167.761 327.972 173.806 327.982 179.85C327.982 179.963 328.048 180.074 328.182 180.483ZM283.48 180.735C286.136 180.735 288.568 180.933 290.955 180.693C295.756 180.208 298.693 177.326 299.375 172.564C299.562 171.251 299.501 169.827 299.209 168.532C298.215 164.111 296.057 160.594 291.246 159.59C289.7 159.267 288.093 159.204 286.509 159.107C285.538 159.046 284.555 159.149 283.48 159.18C283.48 166.459 283.48 173.527 283.48 180.735ZM132.756 199.905C132.455 197.618 132.096 195.339 131.777 193.056C130.887 186.669 130.003 180.282 129.12 173.895C128.617 170.262 128.088 166.63 127.63 162.992C127.332 160.625 128.212 159.299 130.426 158.522C130.644 158.446 130.837 158.301 131.279 158.057C128.676 158.057 126.382 158.057 123.929 158.057C118.584 170.461 113.239 182.865 107.895 195.27C107.756 195.272 107.616 195.273 107.477 195.274C102.149 182.865 96.8215 170.455 91.5174 158.105C88.612 158.105 85.8966 158.105 83.1811 158.105C83.5225 158.445 83.901 158.566 84.275 158.703C86.3824 159.471 87.806 161.773 87.5275 163.989C87.2398 166.278 86.9462 168.567 86.6235 170.851C85.7335 177.177 84.8295 183.502 83.9279 189.827C83.3931 193.575 82.8444 197.32 82.3167 201.069C82.0976 202.614 81.5164 203.802 79.7433 203.937C79.7223 203.938 79.7154 204.091 79.6863 204.257C80.779 204.257 81.839 204.26 82.8991 204.257C83.9523 204.254 85.0066 204.247 86.0597 204.242C84.2855 203.033 84.0769 202.6 84.36 200.58C84.9134 196.656 85.4644 192.729 85.998 188.801C86.8763 182.354 87.7338 175.902 88.6121 169.455C88.7333 168.569 88.9172 167.691 89.0722 166.808C94.8853 179.251 100.233 191.768 105.737 204.214C105.878 204.205 106.02 204.194 106.162 204.185C111.565 191.697 116.967 179.207 122.371 166.719C122.508 166.74 122.644 166.761 122.781 166.782C122.977 168.277 123.16 169.775 123.371 171.268C124.737 180.932 126.117 190.595 127.467 200.262C127.572 201.015 127.684 201.876 127.417 202.535C127.155 203.183 126.418 203.637 125.92 204.147C129.137 204.147 132.399 204.147 135.66 204.147C133.451 203.531 133.004 201.804 132.756 199.905ZM217.622 181.374C220.246 181.262 222.855 181.088 225.375 180.137C229.45 178.601 231.948 175.762 232.413 171.389C233.12 164.74 230.576 160.142 223.232 158.481C221.691 158.132 220.07 158.027 218.485 158.007C213.817 157.947 209.148 157.983 204.481 157.989C204.142 157.989 203.804 158.052 203.108 158.121C205.793 159.044 206.079 159.419 206.259 161.916C206.28 162.211 206.276 162.509 206.276 162.804C206.277 175.186 206.282 187.568 206.274 199.95C206.273 202.47 205.91 202.959 203.568 203.878C203.498 203.905 203.478 204.055 203.429 204.16C207.23 204.16 211.025 204.16 215.195 204.16C214.682 203.957 214.533 203.88 214.375 203.84C212.042 203.251 211.73 202.877 211.604 200.463C211.588 200.167 211.592 199.87 211.592 199.574C211.592 186.778 211.591 173.982 211.597 161.186C211.598 160.671 211.67 160.157 211.714 159.57C214.059 159.3 216.277 159.47 218.5 159.742C222.094 160.182 224.618 162.076 226.148 165.321C227.158 167.46 227.413 169.737 227.263 172.082C226.998 176.18 224.261 179.495 220.275 180.462C219.385 180.676 218.471 180.792 217.568 180.954C217.586 181.096 217.604 181.235 217.622 181.374ZM43.7589 204.166C40.3689 204.166 36.9777 204.166 33.3885 204.166C33.8417 203.776 34.1934 203.47 34.6885 203.041C34.5627 202.428 34.5208 201.71 34.2692 201.077C31.9486 195.251 29.5908 189.437 27.241 183.622C27.1746 183.458 27.0755 183.309 26.9288 183.038C22.5718 183.038 18.1602 183.038 13.4794 183.038C10.8734 189.608 8.03091 196.199 5.63459 202.966C6.21707 203.447 6.60376 203.767 7.10003 204.177C4.92389 204.177 2.89229 204.177 0.859436 204.177C3.30584 203.441 4.05837 201.364 4.86568 199.322C10.1744 185.895 15.4808 172.467 20.8174 159.052C21.0737 158.407 21.0527 157.466 22.2142 157.272C22.4297 157.631 22.7152 157.988 22.8783 158.394C28.2278 171.678 33.5655 184.966 38.9045 198.253C39.0595 198.637 39.2179 199.019 39.3775 199.401C40.2606 201.502 41.1412 203.606 43.7589 204.166ZM26.3568 181.607C24.2599 176.306 22.3016 171.351 20.3422 166.397C20.2233 166.4 20.1068 166.403 19.9879 166.406C18.0017 171.422 16.0143 176.438 13.9663 181.608C18.1613 181.607 22.0756 181.607 26.3568 181.607ZM164.212 183.01C159.782 183.01 155.368 183.01 151.007 183.01C149.616 185.341 143.317 201.496 143.175 203.137C143.511 203.42 143.897 203.746 144.412 204.18C142.212 204.18 140.178 204.18 138.144 204.18C140.758 203.45 141.477 201.181 142.318 199.057C147.593 185.743 152.843 172.418 158.116 159.102C158.379 158.44 158.77 157.829 159.102 157.193C159.255 157.198 159.409 157.204 159.561 157.209C159.841 157.75 160.167 158.272 160.393 158.834C164.82 169.81 169.236 180.792 173.654 191.773C174.692 194.354 175.726 196.935 176.76 199.518C177.59 201.599 178.584 203.525 181.05 204.158C177.666 204.158 174.282 204.158 170.715 204.158C171.145 203.791 171.495 203.493 171.987 203.074C171.873 202.461 171.855 201.737 171.606 201.105C169.297 195.273 166.95 189.456 164.606 183.638C164.516 183.426 164.36 183.245 164.212 183.01ZM157.6 166.223C156.114 168.761 151.671 180.346 151.657 181.739C155.578 181.737 159.499 181.769 163.737 181.716C161.62 176.371 159.634 171.358 157.6 166.223ZM241.34 183.037C238.705 189.654 236.087 196.233 233.357 203.089C233.845 203.46 234.254 203.77 234.744 204.143C232.695 204.143 230.678 204.143 228.381 204.143C228.928 203.892 229.243 203.704 229.585 203.599C230.488 203.322 231.133 202.753 231.549 201.919C231.917 201.18 232.301 200.443 232.605 199.676C237.946 186.199 243.274 172.719 248.611 159.241C248.867 158.593 249.174 157.966 249.424 157.406C250.529 157.153 250.593 157.963 250.822 158.521C251.968 161.313 253.091 164.114 254.216 166.914C258.515 177.621 262.814 188.328 267.111 199.035C267.156 199.144 267.208 199.251 267.256 199.359C268.159 201.43 268.961 203.596 271.584 204.172C268.248 204.172 264.912 204.172 261.548 204.172C261.882 203.684 262.342 203.265 262.461 202.762C262.575 202.288 262.42 201.691 262.228 201.211C259.851 195.281 257.446 189.362 255.044 183.44C255.002 183.333 254.905 183.251 254.743 183.036C250.427 183.037 246.019 183.037 241.34 183.037ZM254.2 181.512C252.171 176.348 250.236 171.333 248.034 165.993C245.893 171.412 243.929 176.382 241.954 181.378C243.491 181.812 252.04 181.888 254.2 181.512ZM46.6854 158.29C46.9067 158.342 47.1303 158.387 47.3493 158.446C49.2808 158.955 49.6385 159.371 49.8318 161.348C49.861 161.642 49.8726 161.94 49.8726 162.236C49.875 174.851 49.8866 187.467 49.8668 200.083C49.8622 202.733 49.4299 203.219 46.9125 203.899C46.8309 203.921 46.7785 204.048 46.7121 204.126C50.1371 204.506 76.8961 204.338 78.1624 203.919C78.1624 200.462 78.1624 196.997 78.1624 193.531C77.7675 194.354 77.6475 195.212 77.5345 196.072C76.9719 200.371 74.9274 202.494 70.6112 202.716C67.4984 202.877 64.3461 202.783 61.2426 202.48C57.2107 202.085 55.5343 200.16 55.2058 196.136C55.1825 195.842 55.1919 195.544 55.1919 195.247C55.1907 184.23 55.1848 173.214 55.1942 162.196C55.1965 159.413 55.5088 159.043 58.2499 158.309C58.2953 158.296 58.3069 158.16 58.3686 157.984C54.7806 157.984 51.2403 157.983 47.7 157.987C47.3505 157.987 47.001 158.016 46.6538 158.031C46.6643 158.119 46.6749 158.203 46.6854 158.29ZM113.085 239.109C114.132 240.747 115.024 242.277 116.047 243.711C117.968 246.409 119.896 249.108 121.958 251.697C123.506 253.641 125.567 254.785 128.161 254.398C129.071 254.263 129.942 253.857 131.147 253.477C130.754 253.895 130.59 254.166 130.351 254.309C128.017 255.706 125.471 256.071 122.834 255.649C121.349 255.412 120.007 254.705 119.043 253.512C117.448 251.534 115.858 249.546 114.387 247.475C112.712 245.116 111.167 242.664 109.556 240.239C107.813 240.239 106.119 240.239 104.332 240.239C104.255 240.701 104.132 241.09 104.13 241.482C104.115 245.215 104.106 248.949 104.129 252.681C104.139 254.306 104.368 254.619 105.845 255.394C103.369 255.394 100.955 255.394 98.5399 255.394C100.347 255.073 100.497 253.685 100.517 252.284C100.555 249.679 100.531 247.07 100.531 244.463C100.532 239.012 100.532 233.561 100.531 228.109C100.531 227.635 100.544 227.16 100.517 226.688C100.44 225.331 100.202 224.069 98.5877 223.638C102.442 223.638 106.296 223.615 110.151 223.654C111.208 223.664 112.295 223.727 113.314 223.979C117.822 225.09 119.817 229.489 117.88 233.898C117.119 235.629 115.848 236.932 114.409 238.096C114.043 238.391 113.666 238.666 113.085 239.109ZM104.23 239.398C105.929 239.398 107.413 239.54 108.863 239.372C113.434 238.838 115.723 235.971 115.123 231.453C114.767 228.775 113.62 226.442 111.023 225.211C108.872 224.192 106.586 224.372 104.23 224.603C104.23 229.555 104.23 234.372 104.23 239.398ZM229.996 240.254C228.109 240.254 226.412 240.254 224.648 240.254C224.569 240.677 224.452 241.013 224.451 241.352C224.437 244.967 224.423 248.581 224.452 252.197C224.462 253.506 224.59 254.813 226.536 255.404C223.798 255.404 221.499 255.404 218.718 255.404C220.519 254.923 220.877 253.896 220.875 252.607C220.867 243.955 220.878 235.302 220.873 226.648C220.873 225.345 220.637 224.145 218.921 223.804C219.009 223.676 219.097 223.547 219.186 223.42C223.825 223.559 228.484 223.487 233.1 223.892C238.166 224.339 240.587 229.906 237.884 234.594C237.192 235.794 236.103 236.775 235.14 237.802C234.708 238.265 234.138 238.595 233.506 239.082C233.972 239.835 234.374 240.545 234.835 241.214C236.884 244.185 238.932 247.158 241.022 250.099C241.567 250.866 242.269 251.522 242.891 252.233C244.659 254.255 247.828 255.266 250.628 253.735C250.828 253.625 251.042 253.546 251.417 253.621C251.163 253.868 250.946 254.174 250.651 254.349C248.427 255.677 245.994 256.029 243.473 255.682C241.366 255.392 239.747 254.195 238.531 252.503C236.115 249.14 233.755 245.737 231.38 242.346C230.905 241.672 230.468 240.97 229.996 240.254ZM224.575 239.207C226.733 239.648 229.643 239.518 231.32 238.947C232.587 238.518 233.624 237.773 234.423 236.7C237.316 232.817 234.715 225.687 230.3 224.782C228.423 224.397 226.58 224.471 224.575 224.525C224.575 229.513 224.575 234.374 224.575 239.207ZM181.06 241.289C181.053 233.735 185.448 226.872 192.075 224.329C196.364 222.684 200.781 222.557 205.073 224.233C210.387 226.307 213.504 230.33 213.963 236.031C214.447 242.051 212.636 247.384 208.136 251.608C205.5 254.083 202.345 255.374 198.773 255.83C196.512 256.118 194.293 256.045 192.089 255.567C186.018 254.254 180.782 248.264 181.06 241.289ZM212.09 241.029C212 240.149 211.994 239.251 211.802 238.391C210.412 232.153 206.472 228.158 200.695 225.787C193.526 222.843 187.424 226.876 184.757 231.573C183.704 233.428 183.308 235.478 183.36 237.55C183.499 242.94 185.771 247.37 189.833 250.849C193.142 253.685 196.925 255.021 201.315 254.048C208.16 252.531 212.285 246.48 212.09 241.029ZM134.027 226.822C134.037 235.415 134.02 244.01 134.043 252.603C134.047 253.969 133.825 255.087 132.234 255.322C139.246 255.322 146.255 255.322 153.373 255.322C153.373 254.036 153.373 252.869 153.373 251.37C152.604 253.644 152.074 254.325 150.627 254.361C147.201 254.447 143.77 254.441 140.344 254.367C138.936 254.336 138.225 253.591 137.92 252.195C137.806 251.68 137.793 251.137 137.791 250.606C137.78 247.524 137.78 244.443 137.792 241.361C137.793 240.904 137.877 240.45 137.932 239.891C138.602 239.856 139.179 239.802 139.758 239.8C142.004 239.789 144.249 239.791 146.498 239.797C147.716 239.801 148.96 239.699 149.979 240.747C149.979 239.774 149.979 239.003 149.979 238.456C149.04 238.669 148.224 238.993 147.399 239.015C144.741 239.085 142.08 239.049 139.418 239.035C138.913 239.031 138.408 238.936 137.924 238.886C137.924 234.056 137.924 229.409 137.924 224.778C138.222 224.689 138.386 224.596 138.554 224.595C141.745 224.58 144.937 224.581 148.129 224.57C149.807 224.566 150.969 225.212 151.284 226.993C151.33 227.251 151.477 227.491 151.576 227.739C151.647 227.722 151.717 227.707 151.789 227.691C151.789 226.393 151.789 225.092 151.789 223.672C145.198 223.672 138.73 223.672 132.306 223.672C134 224.684 134.024 224.684 134.027 226.822ZM262.47 224.612C265.008 224.589 267.545 224.585 270.083 224.568C271.066 224.561 271.6 225.059 271.728 226.47C272.327 224.986 272.757 223.917 273.104 223.057C272.251 223.219 271.382 223.52 270.511 223.525C263.427 223.564 256.34 223.559 249.255 223.531C248.48 223.527 247.706 223.294 246.841 223.151C247.187 224.03 247.554 224.963 248.038 226.188C248.217 224.659 249.093 224.563 250.025 224.563C252.21 224.56 254.395 224.552 256.579 224.568C257.036 224.57 257.491 224.663 258 224.721C258.052 225.219 258.127 225.62 258.127 226.021C258.134 234.841 258.14 243.661 258.117 252.48C258.114 253.11 258.055 253.861 257.716 254.334C257.367 254.823 256.642 255.044 256.056 255.398C258.6 255.398 261.129 255.398 263.661 255.398C262.276 255.146 261.896 254.183 261.845 252.953C261.812 252.188 261.693 251.422 261.692 250.657C261.68 242.726 261.685 234.793 261.685 226.862C261.685 226.219 261.685 225.577 261.685 224.901C262.147 224.727 262.308 224.614 262.47 224.612ZM166.293 255.438C167.06 255.434 167.831 255.41 168.595 255.324C170.747 255.083 172.743 254.522 174.29 252.813C177.717 249.027 178.285 241.847 171.487 238.528C169.638 237.625 167.615 237.088 165.694 236.324C164.601 235.891 163.5 235.427 162.499 234.821C160.555 233.641 159.912 231.77 160.266 229.613C160.686 227.063 162.191 225.276 164.659 224.515C167.836 223.536 170.733 224.18 173.233 226.425C173.652 226.801 174.065 227.185 174.48 227.567C174.571 227.511 174.662 227.454 174.753 227.397C174.323 226.265 173.893 225.133 173.449 223.965C172.086 223.698 170.824 223.399 169.546 223.216C168.733 223.099 167.893 223.112 167.068 223.142C163.026 223.29 159.517 226.098 158.816 229.713C157.995 233.954 159.847 238.169 163.954 239.684C165.95 240.419 167.961 241.123 169.904 241.98C171.077 242.497 172.248 243.149 173.216 243.978C174.821 245.354 175.341 247.191 174.822 249.286C174.133 252.061 171.753 254.105 168.682 254.371C167.219 254.499 165.719 254.507 164.26 254.353C160.595 253.97 158.557 251.954 158.054 248.388C157.977 247.831 157.947 247.269 157.895 246.709C157.646 249.139 157.64 251.561 157.652 253.984C157.653 254.388 157.73 254.788 157.799 255.442C160.75 255.442 163.521 255.45 166.293 255.438Z" fill="white"/>
<path fill-rule="evenodd" clip-rule="evenodd" d="M181.776 4.62213C181.61 4.87986 181.241 4.90097 181.047 4.66384L177.718 0.601986C177.51 0.347851 177.109 0.393895 176.964 0.688613L174.641 5.39911C174.506 5.67411 174.142 5.73714 173.922 5.52372L170.152 1.86792C169.916 1.63919 169.523 1.73068 169.412 2.04005L168.233 5.33339L168.232 5.33639L167.642 6.98468C167.538 7.27334 167.184 7.37749 166.941 7.19056L162.779 3.98847C162.519 3.78812 162.138 3.92386 162.064 4.24384L160.868 9.35815C160.798 9.65672 160.458 9.80062 160.195 9.64261L155.696 6.93598C155.414 6.76663 155.052 6.94485 155.014 7.27128L154.409 12.4886C154.374 12.7932 154.052 12.9749 153.773 12.8479L148.995 10.672C148.696 10.5359 148.356 10.7543 148.356 11.0829L148.349 16.3352C148.349 16.6418 148.05 16.8591 147.758 16.7647L142.763 15.1479C142.45 15.0468 142.138 15.3025 142.175 15.629L142.767 20.8478C142.801 21.1525 142.529 21.4024 142.228 21.3419L137.082 20.3053C136.76 20.2404 136.478 20.5301 136.552 20.8503L137.735 25.9676C137.804 26.2663 137.562 26.5457 137.257 26.5198L132.025 26.0769C131.698 26.0492 131.451 26.3691 131.561 26.6787L133.319 31.6278C133.422 31.9167 133.213 32.2219 132.907 32.231L127.659 32.3876C127.331 32.3974 127.122 32.7433 127.267 33.0384L129.577 37.7547C129.712 38.03 129.54 38.3569 129.237 38.401L124.041 39.155C123.716 39.2021 123.548 39.5696 123.725 39.8462L126.558 44.2683C126.724 44.5265 126.589 44.8709 126.293 44.9493L121.217 46.2909C120.9 46.3748 120.775 46.759 120.982 47.0136L124.301 51.0838C124.494 51.3214 124.4 51.6789 124.115 51.7905L119.225 53.7023C118.919 53.8219 118.839 54.2177 119.074 54.4471L122.835 58.1123C123.054 58.3263 123.002 58.6922 122.731 58.8356L118.09 61.2925C117.8 61.4462 117.765 61.8487 118.025 62.0497L122.179 65.2622C122.421 65.4497 122.411 65.8193 122.158 65.9926L117.828 68.9627C117.557 69.1485 117.568 69.5523 117.85 69.7223L122.342 72.4403C122.604 72.5989 122.636 72.9672 122.405 73.1683L121.083 74.3165L121.081 74.3186L118.441 76.6128C118.193 76.8283 118.251 77.2281 118.549 77.365L123.322 79.5529C123.601 79.6806 123.674 80.0429 123.467 80.2691L119.922 84.1431C119.7 84.3855 119.803 84.7762 120.115 84.8781L125.106 86.5074C125.398 86.6025 125.512 86.9541 125.332 87.2024L124.305 88.6202L124.303 88.6227L122.251 91.4555C122.059 91.7216 122.205 92.098 122.527 92.1636L127.671 93.2132C127.972 93.2744 128.125 93.6107 127.975 93.8779L125.399 98.4545C125.238 98.7409 125.426 99.0981 125.753 99.1266L129.237 99.4304L129.24 99.4307L130.984 99.5827C131.289 99.6093 131.48 99.9259 131.361 100.208L129.323 105.049C129.196 105.352 129.424 105.685 129.752 105.676L135 105.533C135.307 105.525 135.532 105.817 135.446 106.112L133.973 111.153C133.881 111.468 134.146 111.774 134.471 111.727L139.669 110.986C139.972 110.943 140.23 111.208 140.178 111.51L139.289 116.687C139.233 117.011 139.531 117.284 139.849 117.201L143.232 116.316L143.235 116.315L144.928 115.872C145.224 115.794 145.51 116.028 145.493 116.334L145.2 121.579C145.182 121.907 145.509 122.144 145.815 122.025L150.71 120.126C150.995 120.015 151.306 120.215 151.324 120.521L151.63 125.764C151.65 126.092 152.001 126.291 152.292 126.138L156.938 123.693C157.21 123.55 157.541 123.713 157.594 124.015L158.496 129.189C158.552 129.513 158.924 129.67 159.195 129.485L162.084 127.514L162.087 127.512L163.533 126.526C163.786 126.353 164.134 126.477 164.221 126.772L165.706 131.809C165.799 132.124 166.187 132.238 166.435 132.023L169.081 129.736L169.083 129.734L170.407 128.589C170.639 128.388 170.999 128.472 171.119 128.754L173.169 133.59C173.297 133.892 173.695 133.961 173.917 133.719L177.472 129.854C177.68 129.629 178.047 129.671 178.198 129.938L180.785 134.508C180.947 134.794 181.35 134.817 181.543 134.551L183.602 131.724L183.604 131.721L184.635 130.306C184.815 130.058 185.185 130.058 185.365 130.306L186.396 131.721L186.398 131.724L188.457 134.551C188.65 134.817 189.053 134.794 189.215 134.508L191.802 129.938C191.953 129.671 192.321 129.629 192.528 129.854L196.083 133.719C196.305 133.961 196.703 133.892 196.831 133.59L198.881 128.754C199.001 128.472 199.361 128.388 199.593 128.589L203.565 132.023C203.813 132.238 204.201 132.124 204.294 131.809L205.283 128.454L205.284 128.451L205.779 126.772C205.866 126.477 206.214 126.353 206.467 126.526L210.805 129.485C211.076 129.67 211.448 129.513 211.504 129.189L212.105 125.743L212.106 125.74L212.406 124.015C212.459 123.713 212.79 123.55 213.062 123.693L217.708 126.138C217.999 126.291 218.35 126.092 218.37 125.764L218.574 122.272L218.574 122.269L218.676 120.521C218.694 120.215 219.005 120.015 219.29 120.126L220.922 120.759L220.925 120.76L224.185 122.025C224.492 122.144 224.818 121.907 224.8 121.579L224.507 116.334C224.49 116.028 224.776 115.794 225.072 115.872L226.765 116.315L226.768 116.316L230.152 117.201C230.469 117.284 230.767 117.011 230.711 116.687L230.119 113.239L230.119 113.236L229.822 111.51C229.77 111.208 230.028 110.943 230.331 110.986L235.529 111.727C235.854 111.774 236.119 111.468 236.027 111.153L235.046 107.795L235.045 107.792L234.554 106.112C234.468 105.817 234.693 105.525 235 105.533L240.248 105.676C240.576 105.685 240.804 105.352 240.677 105.049L238.639 100.208C238.52 99.9259 238.711 99.6093 239.016 99.5827L240.76 99.4307L240.763 99.4304L244.247 99.1266C244.574 99.0981 244.762 98.7409 244.601 98.4545L242.885 95.4063L242.884 95.4035L242.025 93.8779C241.875 93.6107 242.028 93.2744 242.329 93.2132L247.473 92.1636C247.795 92.098 247.941 91.7216 247.749 91.4555L244.668 87.2024C244.488 86.9541 244.602 86.6025 244.894 86.5074L249.885 84.8781C250.197 84.7762 250.3 84.3855 250.078 84.1431L246.533 80.2691C246.326 80.0429 246.399 79.6806 246.678 79.5529L248.269 78.8236L248.272 78.8223L251.451 77.365C251.749 77.2281 251.807 76.8283 251.559 76.6128L248.919 74.3186L248.917 74.3165L247.595 73.1683C247.364 72.9672 247.396 72.5989 247.658 72.4403L252.15 69.7223C252.432 69.5523 252.443 69.1485 252.172 68.9627L247.842 65.9926C247.589 65.8193 247.579 65.4497 247.821 65.2622L249.206 64.1913L249.208 64.1894L251.975 62.0497C252.235 61.8487 252.2 61.4462 251.91 61.2925L248.819 59.6561L248.816 59.6546L247.269 58.8356C246.998 58.6922 246.946 58.3263 247.165 58.1123L250.926 54.4471C251.161 54.2177 251.081 53.8219 250.775 53.7023L245.885 51.7905C245.6 51.6789 245.506 51.3214 245.699 51.0838L249.018 47.0136C249.225 46.759 249.1 46.3748 248.783 46.2909L243.707 44.9493C243.411 44.8709 243.276 44.5265 243.442 44.2683L246.275 39.8462C246.452 39.5696 246.284 39.2021 245.959 39.155L240.763 38.401C240.46 38.3569 240.288 38.03 240.423 37.7547L241.193 36.1825L241.194 36.1796L242.733 33.0384C242.878 32.7433 242.669 32.3974 242.341 32.3876L237.093 32.231C236.787 32.2219 236.578 31.9167 236.681 31.6278L238.439 26.6787C238.549 26.3691 238.302 26.0492 237.975 26.0769L232.743 26.5198C232.438 26.5457 232.196 26.2663 232.265 25.9676L233.448 20.8503C233.522 20.5301 233.24 20.2404 232.918 20.3053L227.772 21.3419C227.471 21.4024 227.199 21.1525 227.233 20.8478L227.825 15.629C227.862 15.3025 227.55 15.0468 227.237 15.1479L222.242 16.7647C221.95 16.8591 221.651 16.6418 221.651 16.3352L221.649 14.5843V14.5812L221.644 11.0829C221.644 10.7543 221.304 10.5359 221.005 10.672L216.227 12.8479C215.948 12.9749 215.626 12.7932 215.591 12.4886L215.389 10.7494L215.389 10.7462L214.986 7.27128C214.948 6.94485 214.586 6.76663 214.304 6.93598L209.805 9.64261C209.542 9.80062 209.202 9.65672 209.132 9.35815L207.936 4.24384C207.862 3.92386 207.481 3.78812 207.221 3.98847L203.059 7.19056C202.816 7.37749 202.462 7.27334 202.358 6.98468L201.768 5.33639L201.767 5.33339L200.588 2.04005C200.477 1.73068 200.084 1.63919 199.848 1.86792L197.337 4.30285L197.335 4.30506L196.078 5.52372C195.858 5.73714 195.494 5.67411 195.359 5.39911L194.585 3.82887L194.583 3.82602L193.036 0.688613C192.891 0.393894 192.49 0.347851 192.282 0.601987L188.953 4.66384C188.759 4.90097 188.39 4.87986 188.224 4.62212L185.38 0.207171C185.202 -0.069057 184.798 -0.0690568 184.62 0.207171L181.776 4.62213ZM185 3.78998L183.675 5.84646C182.679 7.3929 180.466 7.51951 179.3 6.09676L177.749 4.20475L176.668 6.3989C175.854 8.04886 173.669 8.42707 172.349 7.14655L170.593 5.44368L169.768 7.74688C169.148 9.47886 167.021 10.1037 165.563 8.98213L163.625 7.4906L163.068 9.87284C162.649 11.6642 160.607 12.5276 159.031 11.5796L156.935 10.3188L156.653 12.7491C156.441 14.5765 154.511 15.6672 152.837 14.905L150.611 13.8915L150.608 16.338C150.606 18.1778 148.812 19.4815 147.063 18.9151L144.736 18.1621L145.011 20.593C145.219 22.421 143.585 23.9207 141.783 23.5576L139.385 23.0748L139.936 25.4584C140.35 27.2509 138.898 28.9271 137.066 28.772L134.629 28.5657L135.448 30.8709C136.064 32.6045 134.813 34.4353 132.974 34.4902L130.53 34.5631L131.606 36.76C132.416 38.412 131.381 40.3736 129.561 40.6377L127.141 40.989L128.46 43.0487C129.453 44.5977 128.648 46.6645 126.87 47.1345L124.506 47.7594L126.051 49.6553C127.214 51.081 126.65 53.2261 124.937 53.8957L122.66 54.7862L124.411 56.4934C125.728 57.7773 125.413 59.9727 123.787 60.8333L121.626 61.9777L123.561 63.4741C125.016 64.5993 124.952 66.8164 123.436 67.8568L121.419 69.2402L123.511 70.5062C125.085 71.4582 125.275 73.6681 123.886 74.8746L122.04 76.479L124.263 77.4982C125.935 78.2645 126.375 80.4383 125.134 81.7953L123.482 83.5998L125.807 84.3587C127.556 84.9294 128.241 87.0389 127.162 88.5286L125.727 90.5097L128.123 90.9985C129.925 91.3662 130.846 93.3837 129.943 94.9868L128.744 97.1186L131.18 97.331C133.012 97.4908 134.157 99.3901 133.443 101.086L132.494 103.34L134.939 103.274C136.777 103.223 138.131 104.98 137.615 106.746L136.929 109.094L139.35 108.749C141.17 108.489 142.716 110.08 142.404 111.893L141.99 114.304L144.356 113.685C146.135 113.22 147.852 114.624 147.749 116.461L147.613 118.903L149.893 118.019C151.607 117.353 153.472 118.552 153.58 120.389L153.722 122.831L155.887 121.692C157.514 120.836 159.504 121.815 159.82 123.627L160.24 126.037L162.26 124.659C163.779 123.622 165.868 124.368 166.388 126.132L167.08 128.479L168.93 126.879C170.321 125.676 172.481 126.178 173.199 127.872L174.154 130.124L175.809 128.324C177.055 126.97 179.257 127.223 180.164 128.824L181.369 130.952L182.809 128.975C183.891 127.488 186.109 127.488 187.191 128.975L188.631 130.952L189.836 128.824C190.743 127.223 192.945 126.97 194.191 128.324L195.846 130.124L196.801 127.872C197.519 126.178 199.679 125.676 201.07 126.879L202.92 128.479L203.612 126.132C204.133 124.368 206.221 123.622 207.74 124.659L209.76 126.037L210.18 123.627C210.496 121.815 212.486 120.836 214.114 121.692L216.278 122.831L216.421 120.389C216.528 118.552 218.393 117.353 220.107 118.019L222.387 118.903L222.251 116.461C222.148 114.624 223.865 113.22 225.644 113.685L228.01 114.304L227.596 111.893C227.284 110.08 228.83 108.489 230.65 108.749L233.071 109.094L232.385 106.746C231.869 104.98 233.223 103.223 235.061 103.274L237.506 103.34L236.557 101.086C235.843 99.3901 236.988 97.4908 238.82 97.331L241.256 97.1186L240.057 94.9868C239.154 93.3837 240.075 91.3662 241.877 90.9985L244.273 90.5097L242.838 88.5286C241.759 87.0389 242.445 84.9294 244.193 84.3587L246.518 83.5998L244.866 81.7953C243.625 80.4383 244.065 78.2645 245.737 77.4982L247.96 76.479L246.114 74.8746C244.725 73.6681 244.915 71.4582 246.489 70.5062L248.581 69.2402L246.564 67.8568C245.048 66.8164 244.984 64.5993 246.439 63.4741L248.374 61.9777L246.213 60.8333C244.587 59.9727 244.272 57.7773 245.589 56.4934L247.34 54.7862L245.063 53.8957C243.35 53.2261 242.786 51.0809 243.949 49.6553L245.494 47.7594L243.13 47.1345C241.352 46.6645 240.547 44.5977 241.54 43.0487L242.859 40.989L240.439 40.6377C238.619 40.3736 237.585 38.412 238.394 36.76L239.47 34.5631L237.026 34.4902C235.187 34.4353 233.936 32.6045 234.552 30.8709L235.371 28.5657L232.934 28.772C231.102 28.9271 229.65 27.2509 230.064 25.4584L230.615 23.0748L228.217 23.5576C226.415 23.9207 224.781 22.421 224.989 20.593L225.264 18.1621L222.937 18.9151C221.188 19.4815 219.394 18.1778 219.392 16.338L219.389 13.8915L217.163 14.905C215.489 15.6672 213.559 14.5765 213.347 12.7491L213.065 10.3188L210.969 11.5796C209.393 12.5276 207.351 11.6642 206.932 9.87284L206.375 7.4906L204.437 8.98213C202.979 10.1037 200.852 9.47885 200.232 7.74688L199.407 5.44368L197.651 7.14655C196.331 8.42708 194.146 8.04885 193.332 6.3989L192.251 4.20476L190.7 6.09676C189.534 7.51952 187.321 7.39289 186.325 5.84646L185 3.78998Z" fill="url(#paint0_linear_105_1292)"/>
<path fill-rule="evenodd" clip-rule="evenodd" d="M185 123.928C216.194 123.928 241.482 98.6298 241.482 67.4232C241.482 36.2165 216.194 10.9185 185 10.9185C153.806 10.9185 128.518 36.2165 128.518 67.4232C128.518 98.6298 153.806 123.928 185 123.928ZM216.638 94.624C218.211 95.5133 219.702 96.5307 221.148 97.6851C221.13 97.6334 221.113 97.5814 221.096 97.5294C221.057 97.4115 221.018 97.2935 220.973 97.1778C220.059 94.7917 218.724 92.6761 217.048 90.7926C214.582 88.0225 211.588 86.0851 208.134 84.8988C205.444 83.9744 202.672 83.5729 199.84 83.535C197.935 83.5094 196.059 83.6761 194.211 84.1721C191.572 84.8802 189.08 85.9747 186.712 87.3403C184.702 88.4987 182.721 89.7094 180.739 90.9201C180.059 91.3361 179.378 91.7521 178.696 92.166C176.82 93.3048 174.942 94.4378 172.942 95.3364C171.524 95.9731 170.067 96.4712 168.523 96.6541C166.869 96.8504 165.21 96.8085 163.558 96.637C161.481 96.4212 159.429 96.0345 157.404 95.504C157.058 95.4133 156.712 95.3223 156.347 95.2263C156.117 95.1659 155.879 95.1035 155.629 95.0378C155.674 95.0813 155.709 95.116 155.738 95.145C155.787 95.1934 155.82 95.2258 155.854 95.2563C157.062 96.3216 158.356 97.2599 159.733 98.076C163.572 100.351 167.649 101.586 172.127 101.161C174.175 100.966 176.159 100.519 178.091 99.8061C180.201 99.0264 182.189 97.9752 184.156 96.8759C184.543 96.6593 184.93 96.4412 185.317 96.2231C187.008 95.2696 188.698 94.3163 190.453 93.4865C193.619 91.9891 196.921 91.03 200.404 90.8128C202.821 90.662 205.228 90.8049 207.609 91.2765C210.788 91.906 213.798 93.0201 216.638 94.624ZM208.388 74.8338L208.436 74.9359C208.487 75.0437 208.53 75.1556 208.578 75.2808C208.6 75.3397 208.624 75.4016 208.65 75.4673C208.488 75.4271 208.331 75.3844 208.178 75.3428C207.853 75.254 207.544 75.1698 207.23 75.124C207.061 75.0995 206.893 75.0744 206.724 75.0492C205.853 74.9193 204.98 74.7891 204.104 74.752C202.346 74.6774 200.581 74.6304 198.823 74.693C196.013 74.7932 193.215 75.074 190.457 75.6659C188.417 76.1035 186.485 76.8643 184.615 77.8019C182.48 78.8724 180.473 80.1649 178.485 81.4947C176.71 82.6825 174.933 83.8696 173.131 85.0132C172.378 85.4902 171.575 85.8852 170.775 86.278L170.691 86.3195C169.381 86.9623 167.988 87.2828 166.545 87.42C164.278 87.6352 162.057 87.371 159.857 86.8251C159.747 86.798 159.64 86.759 159.534 86.7202C159.515 86.7134 159.496 86.7066 159.478 86.6999C159.461 86.694 159.448 86.6794 159.43 86.6606C159.421 86.6504 159.411 86.639 159.398 86.6271C159.551 86.5686 159.704 86.5121 159.855 86.4559C160.178 86.3365 160.496 86.2186 160.809 86.0863C163.554 84.9238 165.973 83.2497 168.098 81.1185C170.498 78.7126 172.929 76.3436 175.603 74.2576C177.816 72.5317 180.136 70.9861 182.663 69.7839C184.568 68.8778 186.567 68.2802 188.606 67.8089C190.541 67.3611 192.494 67.0244 194.474 66.8625C195.773 66.7565 197.072 66.656 198.374 66.7243C199.511 66.7842 200.641 66.8971 201.763 67.1327C203.23 67.4409 204.37 68.2293 205.282 69.4294C206.217 70.6608 206.994 71.9916 207.688 73.377C207.929 73.8586 208.158 74.3462 208.388 74.8338ZM190.243 50.7467C191.785 50.5598 193.328 50.3874 194.872 50.2288C195.334 50.1813 195.798 50.1576 196.266 50.1338C196.481 50.1228 196.696 50.1118 196.913 50.0985L200.535 57.4969C200.345 57.4811 200.159 57.4637 199.978 57.4465C199.594 57.4103 199.226 57.3756 198.857 57.3618C197.449 57.3088 196.051 57.4376 194.652 57.5929C192.768 57.802 190.911 58.1679 189.059 58.5733C185.13 59.4331 181.389 60.8375 177.772 62.6236C174.352 64.3127 171.042 66.2061 167.826 68.2757C167.738 68.3322 167.65 68.3891 167.56 68.4409C167.547 68.4479 167.53 68.4467 167.505 68.4448C167.489 68.4437 167.471 68.4424 167.449 68.4424C167.5 68.3079 167.551 68.1742 167.601 68.0413C167.723 67.7184 167.844 67.3995 167.968 67.0819C168.931 64.6202 169.94 62.18 171.056 59.7867C172.031 57.6976 173.522 56.1743 175.545 55.1553C178.493 53.6702 181.514 52.4138 184.738 51.7208C186.563 51.3287 188.392 50.9712 190.243 50.7467ZM183.105 33.2422C184.05 31.0804 184.996 28.9153 185.946 26.7398L192.766 40.6197C192.575 40.6419 192.388 40.663 192.205 40.6838C191.794 40.7303 191.4 40.7749 191.007 40.8246C189.2 41.053 187.421 41.4434 185.658 41.9026C184.052 42.321 182.452 42.7622 180.852 43.2034C180.153 43.3962 179.454 43.5889 178.754 43.7798C178.714 43.7907 178.674 43.8009 178.618 43.8151C178.578 43.8253 178.53 43.8374 178.469 43.8532C180.019 40.3052 181.56 36.7782 183.105 33.2422ZM211.585 98.7727C211.63 98.7969 211.676 98.8212 211.722 98.8452C211.736 98.8526 211.746 98.8673 211.764 98.8936C211.776 98.9104 211.791 98.9319 211.813 98.9593C211.709 98.9414 211.611 98.923 211.515 98.9051C211.321 98.8689 211.14 98.835 210.958 98.813C210.682 98.7797 210.405 98.7458 210.129 98.7119C209.187 98.5963 208.246 98.4807 207.301 98.389C205.822 98.2452 204.343 98.3354 202.872 98.5115C200.538 98.7911 198.289 99.4248 196.109 100.326C194.003 101.196 192 102.283 190.007 103.39L189.794 103.509C187.989 104.511 186.184 105.514 184.29 106.332C182.705 107.018 181.087 107.598 179.38 107.878C177.941 108.114 176.499 108.164 175.046 108.043C172.948 107.869 170.934 107.354 168.989 106.538C168.788 106.454 168.594 106.353 168.415 106.183C168.48 106.186 168.545 106.188 168.61 106.19C168.746 106.195 168.881 106.199 169.016 106.211C172.759 106.551 176.392 106.028 179.931 104.742C182.437 103.831 184.803 102.608 187.15 101.341C187.303 101.259 187.456 101.176 187.608 101.094C189.512 100.064 191.416 99.0341 193.411 98.1952C195.284 97.4077 197.214 96.838 199.223 96.5933C200.799 96.4014 202.381 96.3965 203.964 96.553C206.431 96.7962 208.792 97.4423 211.047 98.4989C211.229 98.5839 211.407 98.6782 211.585 98.7727Z" fill="url(#paint1_linear_105_1292)"/>
<defs>
<linearGradient id="paint0_linear_105_1292" x1="117.632" y1="134.737" x2="252.369" y2="134.737" gradientUnits="userSpaceOnUse">
<stop stop-color="#0088AC"/>
<stop offset="1" stop-color="#00A682"/>
</linearGradient>
<linearGradient id="paint1_linear_105_1292" x1="128.518" y1="123.928" x2="241.482" y2="123.928" gradientUnits="userSpaceOnUse">
<stop stop-color="#0088AC"/>
<stop offset="1" stop-color="#00A682"/>
</linearGradient>
</defs>
</svg>
