<svg width="160" height="24" viewBox="0 0 160 24" fill="none" xmlns="http://www.w3.org/2000/svg">
<path d="M87.674 0.00896118V18.4533H87.549L70.8084 0.00896118H70.0969V23.966H71.5312V5.56286H71.6562L88.3583 23.9642H89.1083V0.00896118H87.674ZM8.03053 1.745C9.21965 1.12153 10.5786 0.795462 11.9136 0.795462C13.045 0.795462 14.3928 1.15199 15.4841 1.47627V0.680804C14.0674 0.27949 12.6187 0.010749 11.2597 0.010749C5.00646 0.010749 0.0128206 4.6384 0 11.9731V11.9875V12.0018C0.0128206 19.3365 5.00807 23.9642 11.2597 23.9642C12.6203 23.9642 14.0674 23.6954 15.4841 23.2923V22.4969C14.3928 22.8211 13.0466 23.1777 11.9136 23.1777C10.5786 23.1777 9.21965 22.8516 8.03053 22.2281C4.59941 20.4778 2.88144 16.2335 2.87823 11.9875C2.88144 7.73963 4.59781 3.49538 8.03053 1.745ZM31.5676 12C31.5676 18.946 35.6446 23.9642 42.7793 23.9642C49.914 23.9642 54.015 18.9728 54.015 12C54.015 5.02717 49.914 0.00896118 42.7793 0.00896118C35.6446 0.00896118 31.5676 5.02717 31.5676 12ZM38.7744 22.1475C35.4988 20.0317 34.5757 15.7175 34.5757 12C34.5757 6.086 37.002 0.632427 42.7777 0.632427C48.5293 0.632427 51.0053 6.086 51.0053 12C51.0053 15.7444 50.0838 20.0299 46.7825 22.1475C45.5934 22.934 44.1863 23.3138 42.7777 23.3138C41.3466 23.3138 39.9635 22.934 38.7744 22.1475ZM107.766 0.121832C106.333 1.17528 105.209 3.29472 105.16 4.91072C105.121 6.15229 105.344 7.20394 105.761 8.11227L106.256 8.10152L105.905 8.40789C109.025 14.3792 120.785 13.8364 119.73 20.9937C119.71 21.1263 119.822 21.5599 119.783 21.6029C120.192 20.3362 120.464 19.7826 120.296 18.3619C119.799 14.1374 115.851 12.4533 112.163 10.8373C109.565 9.69962 107.102 8.56375 106.04 6.69872C104.788 4.49687 106.195 1.61063 107.766 0.121832ZM119.719 21.782C119.623 21.8967 119.452 21.9791 119.389 22.1135C119.061 22.8247 118.533 23.4715 117.867 24L118.716 23.613C119.171 23.2332 119.581 22.8426 119.937 22.4234C120.073 22.2622 120.011 22.0131 120.131 21.8429C120.245 21.6817 120.544 21.6029 120.642 21.4327C121.125 20.5996 121.411 19.6483 121.447 18.5016C121.538 15.5455 120.142 13.6626 118.173 12.2616L117.66 12.8438L117.801 12.0054C113.209 8.97223 105.991 8.19827 106.637 2.88086C106.772 1.8095 107.304 0.784712 108.192 0C108.011 0.03404 107.753 0.206033 107.645 0.31532C106.176 1.80412 104.882 4.55061 106.084 6.66289C107.137 8.51359 109.6 9.59212 112.19 10.728C116.163 12.4694 120.431 14.3398 120.402 19.3294C120.402 19.3992 120.293 20.6121 119.835 21.5635C119.791 21.6548 119.793 21.6924 119.719 21.782ZM137.553 12C137.553 18.946 141.63 23.9642 148.764 23.9642C155.899 23.9642 160 18.9728 160 12C160 5.02717 155.899 0.00896118 148.764 0.00896118C141.63 0.00896118 137.553 5.02717 137.553 12ZM144.761 22.1475C141.485 20.0317 140.562 15.7175 140.562 12C140.562 6.086 142.989 0.632427 148.764 0.632427C154.516 0.632427 156.992 6.086 156.992 12C156.992 15.7444 156.07 20.0299 152.769 22.1475C151.58 22.934 150.173 23.3138 148.764 23.3138C147.333 23.3138 145.95 22.934 144.761 22.1475Z" fill="#232323"/>
</svg>
