<svg width="140" height="30" viewBox="0 0 140 30" fill="none" xmlns="http://www.w3.org/2000/svg">
  <path d="M20.5 4H4V26H20.5C25.7467 26 30 21.7467 30 16.5C30 11.2533 25.7467 7 20.5 7H7V23H20.5C24.0899 23 27 20.0899 27 16.5C27 12.9101 24.0899 10 20.5 10H10V20H20.5C22.433 20 24 18.433 24 16.5C24 14.567 22.433 13 20.5 13H13V17H20.5" fill="currentColor"/>
  <path d="M45 7H35V23H45C48.866 23 52 19.866 52 16C52 12.134 48.866 9 45 9H38V21H45C47.7614 21 50 18.7614 50 16C50 13.2386 47.7614 11 45 11H40V19H45" fill="currentColor"/>
  <path d="M65 7H55V23H65C68.866 23 72 19.866 72 16C72 12.134 68.866 9 65 9H58V21H65C67.7614 21 70 18.7614 70 16C70 13.2386 67.7614 11 65 11H60V19H65" fill="currentColor"/>
  <path d="M85 7H75V23H85C88.866 23 92 19.866 92 16C92 12.134 88.866 9 85 9H78V21H85C87.7614 21 90 18.7614 90 16C90 13.2386 87.7614 11 85 11H80V19H85" fill="currentColor"/>
  <path d="M105 7H95V23H105C108.866 23 112 19.866 112 16C112 12.134 108.866 9 105 9H98V21H105C107.761 21 110 18.7614 110 16C110 13.2386 107.761 11 105 11H100V19H105" fill="currentColor"/>
  <path d="M125 7H115V23H125C128.866 23 132 19.866 132 16C132 12.134 128.866 9 125 9H118V21H125C127.761 21 130 18.7614 130 16C130 13.2386 127.761 11 125 11H120V19H125" fill="currentColor"/>
</svg>
